<svg xmlns="http://www.w3.org/2000/svg" width="1000" height="680" viewBox="0 0 1000 680">
  <defs>
    <clipPath id="shape-clip-export">
      <circle cx="500" cy="340" r="224"/>
    </clipPath>
    <radialGradient id="slice-light" cx="50%" cy="46%" fx="45%" fy="40%" r="74%">
      <stop offset="0" stop-color="#e6b986"/>
      <stop offset=".24" stop-color="#d99a68"/>
      <stop offset=".52" stop-color="#c48659"/>
      <stop offset=".78" stop-color="#9f6041"/>
      <stop offset="1" stop-color="#70402f"/>
    </radialGradient>
    <radialGradient id="slice-dark" cx="50%" cy="46%" fx="45%" fy="40%" r="74%">
      <stop offset="0" stop-color="#e6b986"/>
      <stop offset=".24" stop-color="#d99a68"/>
      <stop offset=".52" stop-color="#c48659"/>
      <stop offset=".78" stop-color="#9f6041"/>
      <stop offset="1" stop-color="#70402f"/>
    </radialGradient>
    <radialGradient id="slice-sheen" cx="35%" cy="25%" r="75%">
      <stop offset="0" stop-color="#fff" stop-opacity=".72"/>
      <stop offset=".6" stop-color="#fff" stop-opacity=".12"/>
      <stop offset="1" stop-color="#fff" stop-opacity="0"/>
    </radialGradient>
    <filter id="soft-shadow" x="-30%" y="-100%" width="160%" height="300%">
      <feGaussianBlur stdDeviation="10"/>
    </filter>
  </defs>

  <ellipse cx="500" cy="580" rx="190" ry="13" fill="#6b4738" opacity=".18" filter="url(#soft-shadow)"/>
  <g clip-path="url(#shape-clip-export)">
    <rect x="0" y="0" width="1000" height="680" fill="url(#slice-light)" stroke="#6f4431" stroke-opacity=".22" stroke-width="2.4"/>

    <!-- A: os dois retangulos centrais ficam separados pela linha x=500. -->
    <rect x="276" y="116" width="44.80" height="89.6" fill="url(#slice-light)" stroke="#6f4431" stroke-opacity=".22" stroke-width="2.4"/>
    <rect x="320.8" y="116" width="107.52" height="89.6" fill="url(#slice-dark)" stroke="#6f4431" stroke-opacity=".22" stroke-width="2.4"/>
    <rect x="428.32" y="116" width="71.68" height="89.6" fill="url(#slice-light)" stroke="#6f4431" stroke-opacity=".22" stroke-width="2.4"/>
    <rect x="500" y="116" width="71.68" height="89.6" fill="url(#slice-light)" stroke="#6f4431" stroke-opacity=".22" stroke-width="2.4"/>
    <rect x="571.68" y="116" width="107.52" height="89.6" fill="url(#slice-dark)" stroke="#6f4431" stroke-opacity=".22" stroke-width="2.4"/>
    <rect x="679.2" y="116" width="44.80" height="89.6" fill="url(#slice-light)" stroke="#6f4431" stroke-opacity=".22" stroke-width="2.4"/>

    <!-- B: as celulas das duas extremidades tambem precisam de gradiente proprio. -->
    <rect x="276" y="205.6" width="44.80" height="134.4" fill="url(#slice-dark)" stroke="#6f4431" stroke-opacity=".22" stroke-width="2.4"/>
    <rect x="320.8" y="205.6" width="35.84" height="134.4" fill="url(#slice-dark)" stroke="#6f4431" stroke-opacity=".22" stroke-width="2.4"/>
    <rect x="356.64" y="205.6" width="35.84" height="134.4" fill="url(#slice-light)" stroke="#6f4431" stroke-opacity=".22" stroke-width="2.4"/>
    <rect x="392.48" y="205.6" width="35.84" height="134.4" fill="url(#slice-dark)" stroke="#6f4431" stroke-opacity=".22" stroke-width="2.4"/>
    <rect x="428.32" y="205.6" width="35.84" height="134.4" fill="url(#slice-light)" stroke="#6f4431" stroke-opacity=".22" stroke-width="2.4"/>
    <rect x="464.16" y="205.6" width="35.84" height="134.4" fill="url(#slice-dark)" stroke="#6f4431" stroke-opacity=".22" stroke-width="2.4"/>
    <rect x="500" y="205.6" width="35.84" height="134.4" fill="url(#slice-light)" stroke="#6f4431" stroke-opacity=".22" stroke-width="2.4"/>
    <rect x="535.84" y="205.6" width="35.84" height="134.4" fill="url(#slice-dark)" stroke="#6f4431" stroke-opacity=".22" stroke-width="2.4"/>
    <rect x="571.68" y="205.6" width="35.84" height="134.4" fill="url(#slice-light)" stroke="#6f4431" stroke-opacity=".22" stroke-width="2.4"/>
    <rect x="607.52" y="205.6" width="35.84" height="134.4" fill="url(#slice-dark)" stroke="#6f4431" stroke-opacity=".22" stroke-width="2.4"/>
    <rect x="643.36" y="205.6" width="35.84" height="134.4" fill="url(#slice-light)" stroke="#6f4431" stroke-opacity=".22" stroke-width="2.4"/>
    <rect x="679.2" y="205.6" width="44.80" height="134.4" fill="url(#slice-light)" stroke="#6f4431" stroke-opacity=".22" stroke-width="2.4"/>

    <!-- C -->
    <rect x="276" y="340" width="44.80" height="134.4" fill="url(#slice-dark)" stroke="#6f4431" stroke-opacity=".22" stroke-width="2.4"/>
    <rect x="320.8" y="340" width="35.84" height="134.4" fill="url(#slice-dark)" stroke="#6f4431" stroke-opacity=".22" stroke-width="2.4"/>
    <rect x="356.64" y="340" width="35.84" height="134.4" fill="url(#slice-light)" stroke="#6f4431" stroke-opacity=".22" stroke-width="2.4"/>
    <rect x="392.48" y="340" width="35.84" height="134.4" fill="url(#slice-dark)" stroke="#6f4431" stroke-opacity=".22" stroke-width="2.4"/>
    <rect x="428.32" y="340" width="35.84" height="134.4" fill="url(#slice-light)" stroke="#6f4431" stroke-opacity=".22" stroke-width="2.4"/>
    <rect x="464.16" y="340" width="35.84" height="134.4" fill="url(#slice-dark)" stroke="#6f4431" stroke-opacity=".22" stroke-width="2.4"/>
    <rect x="500" y="340" width="35.84" height="134.4" fill="url(#slice-light)" stroke="#6f4431" stroke-opacity=".22" stroke-width="2.4"/>
    <rect x="535.84" y="340" width="35.84" height="134.4" fill="url(#slice-dark)" stroke="#6f4431" stroke-opacity=".22" stroke-width="2.4"/>
    <rect x="571.68" y="340" width="35.84" height="134.4" fill="url(#slice-light)" stroke="#6f4431" stroke-opacity=".22" stroke-width="2.4"/>
    <rect x="607.52" y="340" width="35.84" height="134.4" fill="url(#slice-dark)" stroke="#6f4431" stroke-opacity=".22" stroke-width="2.4"/>
    <rect x="643.36" y="340" width="35.84" height="134.4" fill="url(#slice-light)" stroke="#6f4431" stroke-opacity=".22" stroke-width="2.4"/>
    <rect x="679.2" y="340" width="44.80" height="134.4" fill="url(#slice-light)" stroke="#6f4431" stroke-opacity=".22" stroke-width="2.4"/>

    <!-- D: os dois retangulos centrais ficam separados pela linha x=500. -->
    <rect x="276" y="474.4" width="44.80" height="89.6" fill="url(#slice-light)" stroke="#6f4431" stroke-opacity=".22" stroke-width="2.4"/>
    <rect x="320.8" y="474.4" width="107.52" height="89.6" fill="url(#slice-dark)" stroke="#6f4431" stroke-opacity=".22" stroke-width="2.4"/>
    <rect x="428.32" y="474.4" width="71.68" height="89.6" fill="url(#slice-light)" stroke="#6f4431" stroke-opacity=".22" stroke-width="2.4"/>
    <rect x="500" y="474.4" width="71.68" height="89.6" fill="url(#slice-light)" stroke="#6f4431" stroke-opacity=".22" stroke-width="2.4"/>
    <rect x="571.68" y="474.4" width="107.52" height="89.6" fill="url(#slice-dark)" stroke="#6f4431" stroke-opacity=".22" stroke-width="2.4"/>
    <rect x="679.2" y="474.4" width="44.80" height="89.6" fill="url(#slice-light)" stroke="#6f4431" stroke-opacity=".22" stroke-width="2.4"/>

    <circle cx="500" cy="340" r="224" fill="url(#slice-sheen)" opacity=".34"/>
    <line x1="276" y1="474.4" x2="724" y2="474.4" fill="none" stroke="#5a3528" stroke-linecap="round" stroke-width="3.8"/>
    <line x1="276" y1="205.6" x2="724" y2="205.6" fill="none" stroke="#5a3528" stroke-linecap="round" stroke-width="3.8"/>
    <line x1="276" y1="340" x2="724" y2="340" fill="none" stroke="#5a3528" stroke-linecap="round" stroke-width="3.8"/>
    <line x1="500" y1="116" x2="500" y2="564" fill="none" stroke="#5a3528" stroke-linecap="round" stroke-width="3.8"/>
    <line x1="535.84" y1="205.45" x2="535.84" y2="474.4" fill="none" stroke="#5a3528" stroke-linecap="round" stroke-width="3.8"/>
    <line x1="571.68" y1="127.79" x2="571.68" y2="564" fill="none" stroke="#5a3528" stroke-linecap="round" stroke-width="3.8"/>
    <line x1="607.52" y1="205.6" x2="607.52" y2="474.4" fill="none" stroke="#5a3528" stroke-linecap="round" stroke-width="3.8"/>
    <line x1="643.36" y1="204.03" x2="643.36" y2="474.88" fill="none" stroke="#5a3528" stroke-linecap="round" stroke-width="3.8"/>
    <line x1="679.2" y1="116" x2="679.2" y2="564" fill="none" stroke="#5a3528" stroke-linecap="round" stroke-width="3.8"/>
    <line x1="464.16" y1="205.6" x2="464.16" y2="474.4" fill="none" stroke="#5a3528" stroke-linecap="round" stroke-width="3.8"/>
    <line x1="428.32" y1="116" x2="428.32" y2="564" fill="none" stroke="#5a3528" stroke-linecap="round" stroke-width="3.8"/>
    <line x1="392.48" y1="205.6" x2="392.48" y2="474.4" fill="none" stroke="#5a3528" stroke-linecap="round" stroke-width="3.8"/>
    <line x1="356.64" y1="205.6" x2="356.64" y2="474.4" fill="none" stroke="#5a3528" stroke-linecap="round" stroke-width="3.8"/>
    <line x1="320.8" y1="116" x2="320.8" y2="564" fill="none" stroke="#5a3528" stroke-linecap="round" stroke-width="3.8"/>
    <circle cx="500" cy="340" r="224" fill="none" stroke="#6f4431" stroke-width="5.5"/>
  </g>
</svg>
